<svg xmlns="http://www.w3.org/2000/svg" xmlns:xlink="http://www.w3.org/1999/xlink" width="500" zoomAndPan="magnify" viewBox="0 0 375 374.999991" height="500" preserveAspectRatio="xMidYMid meet" version="1.0"><defs><g/></defs><g fill="#0bda51" fill-opacity="1"><g transform="translate(15.687495, 256.093296)"><g><path d="M 11.34375 -145.796875 L 25.203125 -145.796875 L 66.59375 -48.953125 L 66.59375 -145.796875 L 83.515625 -145.796875 L 83.515625 0 L 70.5625 0 L 28.625 -99.546875 L 28.625 0 L 11.34375 0 Z M 11.34375 -145.796875 "/></g></g></g><g fill="#0bda51" fill-opacity="1"><g transform="translate(110.727489, 256.093296)"><g><path d="M 11.34375 -145.796875 L 67.859375 -145.796875 L 67.859375 -130.6875 L 31.6875 -130.6875 L 31.6875 -82.4375 L 61.015625 -82.4375 L 61.015625 -68.046875 L 31.6875 -68.046875 L 31.6875 -14.578125 L 68.21875 -14.578125 L 68.21875 0 L 11.34375 0 Z M 11.34375 -145.796875 "/></g></g></g><g fill="#0bda51" fill-opacity="1"><g transform="translate(183.987491, 256.093296)"><g><path d="M 32.765625 -76.3125 L 2.875 -145.796875 L 21.78125 -145.796875 L 43.921875 -94.3125 L 64.078125 -145.796875 L 82.984375 -145.796875 L 52.375 -74.703125 L 84.421875 0 L 65.515625 0 L 41.765625 -54.90625 L 21.234375 0 L 2.34375 0 Z M 32.765625 -76.3125 "/></g></g></g><g fill="#0bda51" fill-opacity="1"><g transform="translate(270.747491, 256.093296)"><g><path d="M 34.375 -145.796875 L 54 -145.796875 L 85.140625 0 L 65.875 0 L 59.21875 -36.71875 L 29.515625 -36.71875 L 22.5 0 L 3.421875 0 Z M 56.515625 -51.296875 L 44.28125 -117 L 32.21875 -51.296875 Z M 56.515625 -51.296875 "/></g></g></g></svg>